<?xml version="1.0" encoding="utf-8"?>
<!-- Generator: Adobe Illustrator 22.1.0, SVG Export Plug-In . SVG Version: 6.00 Build 0)  -->
<svg version="1.1" id="Layer_1" xmlns="http://www.w3.org/2000/svg" xmlns:xlink="http://www.w3.org/1999/xlink" x="0px" y="0px"
	 viewBox="0 0 605.3 706.2" style="enable-background:new 0 0 605.3 706.2;" xml:space="preserve">
<style type="text/css">
	.st0{opacity:0.4;fill:#A8C4E5;}
	.st1{opacity:0.4;}
	.st2{fill:#A8C4E5;}
	.st3{fill:#9E5E41;}
	.st4{fill:#8C533C;}
	.st5{fill:#BC7046;}
	.st6{fill:#704233;}
	.st7{fill:#F4F4F4;}
	.st8{fill:#E8E8E8;}
	.st9{fill:#FFFFFF;}
	.st10{fill:#F1A32F;}
	.st11{fill:#FFCE43;}
	.st12{fill:#F7C22D;}
	.st13{fill:#FFDD4D;}
	.st14{fill:#EFB430;}
	.st15{fill:#DB9628;}
	.st16{fill:#BF7E1F;}
	.st17{fill:#3B2AD1;}
	.st18{fill:#2C1F9C;}
	.st19{fill:#C6D2F2;}
	.st20{fill:#FFC2B0;}
	.st21{fill:#BAD4F5;}
	.st22{fill:none;stroke:#FFFFFF;stroke-width:4.6735;stroke-linecap:round;stroke-linejoin:round;stroke-miterlimit:10;}
	.st23{fill:#F09A82;}
	.st24{fill:#DB395F;}
	.st25{fill:#8585FF;}
	.st26{fill:#DBEFFF;}
	.st27{fill:#D0E7F4;}
	.st28{fill:#4852DB;}
	.st29{opacity:0.43;fill:#FFFFFF;}
	.st30{fill:#875963;}
	.st31{fill:#BA3151;}
	.st32{fill:#ADD5F7;}
	.st33{fill:#2C4482;}
	.st34{fill:#4264BF;}
	.st35{opacity:0.77;fill:#A8C4E5;}
	.st36{fill:#515CE8;}
	.st37{fill:#FA557B;}
</style>
<path class="st0" d="M182.9,639.8l-68.7-39.9c-0.6-0.3-1.3-0.3-1.8,0l-86.7,48.2c-1.2,0.7-1.3,2.5,0,3.2l87.1,51.3
	c0.6,0.3,1.3,0.3,1.9,0l68.4-40.3c0.6-0.3,0.9-0.9,0.9-1.6l-0.1-19.3C183.8,640.7,183.5,640.1,182.9,639.8z"/>
<g class="st1">
	<path class="st2" d="M501.3,650.9L419,604.1c-2.9-1.7-2.9-5.9,0-7.6l82.3-46.8c1.4-0.8,3-0.8,4.4,0l81.1,45.8
		c2.9,1.7,1.9,6.9-1,8.5l-80.1,46.8C504.3,651.7,502.7,651.7,501.3,650.9z"/>
</g>
<g>
	<g>
		<polygon class="st3" points="112.9,697.4 37.9,653.2 38.1,614.2 112.9,656.4 		"/>
	</g>
	<g>
		<polygon class="st4" points="183.9,656.4 112.9,697.4 112.9,657.4 183.9,615.4 		"/>
	</g>
	<g>
		<polygon class="st5" points="112.9,657.4 37.9,614.4 112.9,571.4 185.9,614.4 		"/>
	</g>
	<g>
		<polygon class="st6" points="185.9,655.4 183.9,656.4 183.9,615.6 185.9,614.4 		"/>
	</g>
	<g>
		<polygon class="st7" points="100.9,650.4 72.9,634.4 146.9,591.4 173.9,607.4 		"/>
	</g>
	<g>
		<polygon class="st8" points="100.9,690.3 71.9,673.2 72.9,634.4 100.9,650.4 		"/>
	</g>
	<g>
		<polygon class="st9" points="101.8,590.2 94.9,586.3 113.2,575.6 119.9,579.6 		"/>
	</g>
</g>
<g>
	<g>
		<polygon class="st3" points="489.9,653.4 564.9,609.2 564.6,570.2 489.9,612.4 		"/>
	</g>
	<g>
		<polygon class="st4" points="418.9,612.4 489.9,653.4 489.9,613.4 418.9,571.4 		"/>
	</g>
	<g>
		<polygon class="st5" points="489.9,613.4 564.9,570.4 489.9,527.4 416.9,570.4 		"/>
	</g>
	<g>
		<polygon class="st6" points="416.9,611.4 418.9,612.4 418.9,571.6 416.9,570.4 		"/>
	</g>
	<g>
		<polygon class="st7" points="501.9,606.4 529.9,590.4 455.9,547.4 428.9,563.4 		"/>
	</g>
	<g>
		<polygon class="st8" points="501.9,646.3 530.9,629.2 529.9,590.4 501.9,606.4 		"/>
	</g>
	<g>
		<polygon class="st9" points="501,546.2 507.9,542.3 489.6,531.6 482.9,535.6 		"/>
	</g>
</g>
<g>
	<g>
		<polygon class="st3" points="488.5,610.4 556.9,570 556.7,534.4 488.5,573 		"/>
	</g>
	<g>
		<polygon class="st4" points="423.7,573 488.5,610.4 488.5,573.9 423.7,535.6 		"/>
	</g>
	<g>
		<polygon class="st5" points="488.5,573.9 556.9,534.6 488.5,495.4 421.9,534.6 		"/>
	</g>
	<g>
		<polygon class="st6" points="421.9,572 423.7,573 423.7,535.7 421.9,534.6 		"/>
	</g>
	<g>
		<polygon class="st7" points="499.4,567.5 525,552.9 457.5,513.7 432.8,528.2 		"/>
	</g>
	<g>
		<polygon class="st8" points="499.4,603.9 525.9,588.3 525,552.9 499.4,567.5 		"/>
	</g>
	<g>
		<polygon class="st9" points="498.6,512.6 504.9,509 488.2,499.3 482.1,502.9 		"/>
	</g>
</g>
<ellipse class="st0" cx="374" cy="513.5" rx="83" ry="51.4"/>
<polygon class="st10" points="398.4,529.9 244.4,526.7 244.4,485.2 398.4,487.7 "/>
<ellipse class="st10" cx="321.4" cy="526.7" rx="77" ry="47.7"/>
<ellipse class="st11" cx="321.4" cy="487.7" rx="77" ry="47.7"/>
<path class="st10" d="M322.7,489.9L322.7,489.9c-16.4,0-29.8-13.3-29.8-29.7l-0.2-93.3l52.8-0.1l0.2,100.1
	C345.7,479.5,335.5,489.9,322.7,489.9z"/>
<g>
	<polygon class="st10" points="186.6,183.6 169.7,191.9 206.6,214.8 212.6,202.4 	"/>
	<g>
		<path class="st10" d="M197,184.4l36.4,14.8l-7.1,25.7c-0.1,0-0.2-0.1-0.2-0.1l-19.6-13.3c-5.6-3.9-10.5-0.9-10.6,6.5
			c-0.4,21.3,2.2,62.2,25.4,76.7l-6.6,29.9c-36.3-22.7-40.8-90.6-40.2-124C174.6,189,188.2,178.4,197,184.4z"/>
		<path class="st12" d="M180.2,194l37.2,17.1l-7.9,23.4c-0.1,0,1.8-5.3,1.8-5.3l-21.6-8.1c-5.6-3.9-10.5-0.9-10.6,6.5
			c-0.4,21.3,9.5,73,39,86.3l3.1,24.3c-53.7-26.5-58.1-100.6-57.6-134C163.7,192.6,171.4,188,180.2,194z"/>
	</g>
</g>
<path class="st11" d="M203.7,225.9l10.4,81.4c6.1,46.1,33.8,84.5,71,98.5l25.8,9.7c52.1,19.5,105.3-19.6,113.7-83.5l9.6-109.6
	L203.7,225.9z"/>
<path class="st13" d="M232.3,308.9L217.2,185l-14.2,37.8l11,86.1c6.1,46.1,33.8,84.5,71,98.5h18.3
	C266.1,393.4,238.4,355,232.3,308.9z"/>
<path class="st14" d="M395.9,225.9L385,318.2c-7.8,59.3-55.9,97.9-104.1,87.5c4.9,2.8,11,4.5,11,4.5l9.4,3.5
	c52.1,19.5,105.3-19.6,113.7-83.5l11.5-97.2L395.9,225.9z"/>
<g>
	<path class="st10" d="M452.8,265.3l-47-20.1l0.8,24.4c0.1,0,0.3,0.1,0.3,0.1l30,12.8c8.6,3.6,15.8,14.1,15.5,22.7
		c-0.8,24.8-7,67.8-42.5,51.1l0.6,24.3c55.5,26,65.3-41.1,66.5-79.9C477.5,287.3,466.3,271,452.8,265.3z"/>
	<polygon class="st15" points="410,356.4 391.6,368.3 422.6,383.5 412.2,361.7 	"/>
	<path class="st13" d="M434.4,277.2l-47-20.1l0.8,24.4c0.1,0,0.3,0.1,0.3,0.1l30,12.8c8.6,3.6,15.8,14.1,15.5,22.7
		c-0.8,24.8-7,67.8-42.5,51.1l0.6,24.3c55.5,26,65.3-41.1,66.5-79.9C459,299.1,447.9,282.8,434.4,277.2z"/>
	<polygon class="st10" points="403.4,244 387.4,257.1 432,276.2 437.8,261.6 	"/>
</g>
<ellipse class="st13" cx="318.7" cy="218.5" rx="115.6" ry="71.6"/>
<ellipse class="st16" cx="318.7" cy="218.5" rx="82.5" ry="51"/>
<path class="st10" d="M318.7,201c36,0,66.7,14.3,77.9,34.3c3-5.3,4.6-10.9,4.6-16.8c0-28.2-36.9-51-82.5-51
	c-45.5,0-82.5,22.9-82.5,51c0,5.9,1.6,11.5,4.6,16.8C252,215.3,282.6,201,318.7,201z"/>
<path class="st0" d="M369.1,250.3c-1.2,7.8-3.6,20.1,1.2,7.9c-0.6,9.1,3.8,49.3,4.9,59.6c0.1,1.3,0.8,2.4,1.8,3.1l1,8.4
	c-0.1,0.1-0.2,0.1-0.3,0.2L365,346.2c-2.4,1.9-2.4,4.3,0.1,5.3l0.7,0.3c2.5,1,6.5,0.3,8.9-1.6l14.4-11.2c2.4-1.9,2.7-2.6,1.7-6.8
	l-0.6-3c-0.2-0.8-0.7-1.5-1.4-1.9l-0.9-7.1c0.5-0.7,0.9-1.5,1.2-2.5c2.5-9.1,0.4-40,6.9-49c0.6-0.9,1.5-1.8,2.5-2.8
	C398.4,265.8,369.3,249,369.1,250.3z"/>
<path class="st0" d="M346.4,239.6c-3.1,7.3-8.3,18.7-0.8,8c-2.8,8.7-8.1,48.7-9.5,59c-0.2,1.3,0.2,2.5,1,3.5l-1,8.4
	c-0.1,0-0.2,0.1-0.3,0.1l-16.5,13.3c-2.8,1.3-3.4,3.6-1.2,5.1l0.6,0.4c2.2,1.6,6.2,1.8,9,0.6l16.7-7.4c2.8-1.3,3.3-1.8,3.2-6.2
	l0.1-3c0-0.8-0.3-1.6-0.9-2.2l0.8-7.1c0.6-0.5,1.2-1.2,1.7-2.2c4.6-8.3,10-38.7,18.4-46c0.8-0.7,1.9-1.4,3.1-2.1
	C371.1,261.7,346.9,238.5,346.4,239.6z"/>
<path class="st0" d="M398.4,265.8c0,0,25.8-14.1,19.3-30.5c-6.5-16.4-33.1,22.5-33.1,22.5L398.4,265.8z"/>
<path class="st17" d="M373.3,242.3c2.3,0,47.6,16.3,47.6-21.2c0-37.6-57.9,5.3-57.9,5.3L373.3,242.3z"/>
<path class="st18" d="M307.8,318.5l18-11.2c2.2-0.7,6.8-0.2,9.7,0.9c1.3,0.5,2.1,1.9,1.9,3.2l-0.4,3c-0.5,4.3-1,4.9-4,5.8l-17.5,5.4
	c-2.9,0.9-7,0.2-8.9-1.6l-0.6-0.5C304.1,321.6,304.9,319.4,307.8,318.5z"/>
<path class="st19" d="M336.5,310.4c-1,4.3-11.6,1.8-10.5-2.5l3.4-14.1l10.5,2.5L336.5,310.4z"/>
<path class="st18" d="M349.7,339.6l12.9-16.8c1.8-1.4,6.3-2.5,9.4-2.6c1.4,0,2.6,1,2.9,2.4l0.6,3c1.1,4.2,0.8,4.9-1.7,6.8
	l-14.4,11.2c-2.4,1.9-6.4,2.6-8.9,1.6l-0.7-0.3C347.3,343.8,347.2,341.5,349.7,339.6z"/>
<path class="st19" d="M373.7,321.9c0.6,4.4-10.2,5.8-10.7,1.3l-1.8-14.4l10.7-1.3L373.7,321.9z"/>
<path class="st17" d="M371.2,208c0,0-33.5,17.2-34.9,26.1c-1.2,7.8-8.4,53.6-8.5,64.6c-0.1,4.8,9.7,7.9,11.7,1.1
	c2.8-9.5,10.6-42.5,17.4-51.8c6.8-9.3,40.3-22.5,40.3-22.5L371.2,208z"/>
<path class="st17" d="M393.7,223.6c0,0-37.5,18.7-38.6,27.2c-1,7.4,3.7,49.7,4.9,60.3c0.2,1.6,1.3,3,2.8,3.6c3.4,1.3,9.3,2.6,11-3.8
	c2.5-9.1,0.4-40,6.9-49c3.5-4.9,12.5-10.5,27.9-17.7c7-3.3,12.1-17.1,3.5-18.2L393.7,223.6z"/>
<path class="st20" d="M364.3,136c0,0,1.3,0.5-9.6-36.8C351,86.6,356,65.5,356,65.5l9.3-0.6c0,0-3.5,20.3-0.2,28.9
	c4.4,11.6,12.5,35.2,11.5,39.5C375.7,137.5,364.3,136,364.3,136z"/>
<path class="st21" d="M385.3,134.3l-11.1-29.5c-1.5-2.4-22.3,4.5-20.4,8.1c0.3,0.6,12.5,36,24.7,43.3
	C388.4,162.3,391,147.9,385.3,134.3z"/>
<path class="st22" d="M377.3,113.2c0,0-11.6-1.7-20.7,7.6"/>
<path class="st20" d="M358.3,70.2L358.3,70.2c-2.4-1.1-3.5-4-2.5-6.4l1.4-3.2c1.1-2.4,4-3.6,6.4-2.5v0c2.4,1.1,3.5,4,2.5,6.4
	l-1.4,3.2C363.7,70.2,360.8,71.3,358.3,70.2z"/>
<path class="st21" d="M364.6,205.2v-46c0-25.9,9.8-35.4,26.1-29.5l6.7,1.8c19.7,10.6,29.6,10.1,26.1,30.9l-3.4,45.6
	C420.1,231.5,363.3,232.8,364.6,205.2z"/>
<path class="st18" d="M389.8,129.4c0,0,2.6,2.5,4,2.8c1.3,0.3,14.5-8.8,9.4-21.9c-3.2-8.3-17.6-4.4-17.6-4.4L389.8,129.4z"/>
<path class="st20" d="M392.1,124.2c-1.6,7.3-6.8,9.7-11.7,5.3c-4.8-4.4-7.5-13.9-5.9-21.3c1.6-7.3,6.8-9.7,11.7-5.3
	C391,107.3,393.7,116.9,392.1,124.2z"/>
<path class="st20" d="M399.5,121.4c-1.6,7.3-9.1,10.5-14,6c-4.8-4.4-7.5-13.9-5.9-21.3c1.6-7.3,6.8-9.7,11.7-5.3
	C396.1,105.3,401.1,114.1,399.5,121.4z"/>
<path class="st20" d="M392.7,141l-0.8,0.1c-2.6,0.4-5.2-1.3-5.6-4l-2.5-14.9c-0.4-2.6,1.3-5.2,4-5.6l0.8-0.1c2.6-0.4,5.2,1.3,5.6,4
	l4.5,13.9C399.2,137,395.4,140.5,392.7,141z"/>
<path class="st20" d="M400.1,124.4c-0.4,1.8-2.1,2.9-3.9,2.5c-1.8-0.4-2.9-2.1-2.5-3.9c0.4-1.8,2.1-2.9,3.9-2.5
	C399.3,120.8,400.5,122.6,400.1,124.4z"/>
<path class="st18" d="M384.5,105.6c0,0-2.4,17.3,16.3,15.6c0,0,11.1-9,0-20.7c-9.8-10.3-21,0.5-21,0.5L384.5,105.6z"/>
<path class="st18" d="M374.1,111.7c0,0,2.8-5.4,10.4-6.2l-4.7-4.6C379.8,101,373.8,100.9,374.1,111.7z"/>
<path class="st23" d="M385.5,131.7c0,0,6.4,0.1,10.6-6c0,0-4,9.4-9.9,10.2L385.5,131.7z"/>
<path class="st20" d="M412.8,139.7c0,0,0.9,1.1,10.6-36.5c3.3-12.7,0-29.9,0-29.9l9.6,0.8c0,0,3.7,20.8,2.1,29.9
	c-2.2,12.2-7.4,36.6-10.4,39.8C421.8,146.8,412.8,139.7,412.8,139.7z"/>
<path class="st20" d="M430.7,78L430.7,78c-2.1,1.6-5.2,1.2-6.8-0.9l-2.1-2.8c-1.6-2.1-1.2-5.2,0.9-6.8v0c2.1-1.6,5.2-1.2,6.8,0.9
	l2.1,2.8C433.3,73.3,432.8,76.3,430.7,78z"/>
<path class="st21" d="M425.5,146.8l12.4-28.9c0.6-2.8-19.2-12.2-20.3-8.3c-0.2,0.7-16,34.6-12.2,48.4
	C408.4,169.1,420.3,160.6,425.5,146.8z"/>
<path class="st22" d="M434.4,126c-5.7,0.2-18-6.4-20.2-8.9"/>
<g>
	<path class="st0" d="M283.9,562.6l-32.1,17.9c-2.3,1.3-3.2,3.9-2,5.8c1.2,1.9,4,2.4,6.3,1.2l35.7-19.9L283.9,562.6z"/>
	<path class="st0" d="M266.9,527.7L266,518l-61.4,35.1c-2.3,1.3-3.2,3.9-2,5.8c1.2,1.9,4,2.4,6.3,1.2L266.9,527.7z"/>
	<path class="st18" d="M312.2,359.5l-0.4-0.2c-1.4-0.8-3,0.3-3.6,2.5l-7.2,27.1l-43.2-24.6l7.2-27.1c0.6-2.2-0.1-4.6-1.5-5.3
		l-0.4-0.2c-1.4-0.8-3,0.3-3.6,2.5l-7.8,29.3l0,0l-0.8,2.9v0l-9.4,35.1l0,0l-0.6,2.1l-9.6,35.8l0,0l0,0.1l-10.5,39.2l-0.4,1.5l0,0
		l-9.4,35.1v0l-0.8,2.9l0,0l-9.8,36.7c-0.6,2.2,0.1,4.6,1.5,5.3l0.4,0.2c1.4,0.8,3-0.3,3.6-2.5l9.2-34.5l43.2,24.6l-9.2,34.5
		c-0.6,2.2,0.1,4.6,1.5,5.3l0.4,0.2c1.4,0.8,3-0.3,3.6-2.5l59-220.6C314.3,362.7,313.6,360.3,312.2,359.5z M299.1,396.2l-8.2,30.7
		l-43.2-24.6l8.2-30.7L299.1,396.2z M280.8,464.8l-43.2-24.6l8.2-30.7l43.2,24.6L280.8,464.8z M270.6,502.7l-43.2-24.6l8.2-30.7
		l43.2,24.6L270.6,502.7z M217.3,516l8.2-30.7l43.2,24.6l-8.2,30.7L217.3,516z"/>
</g>
<g>
	<g>
		<path class="st9" d="M378.1,121.1l8.8,1.4c0,0-3.2,4.7-5.6,3.8C378.9,125.5,378.1,121.1,378.1,121.1z"/>
	</g>
</g>
<g>
	
		<ellipse transform="matrix(6.586464e-03 -1 1 6.586464e-03 -451.5052 639.9424)" class="st0" cx="96.3" cy="547.2" rx="20" ry="40.2"/>
	<path class="st18" d="M67.9,550.6l-5.5-19.7c-1.1-1.9-4.7-4.5-7.5-5.6c-1.2-0.5-2.7,0-3.4,1.1l-1.6,2.4c-2.5,3.4-2.4,4.1-0.9,6.7
		l8.9,15.2c1.5,2.6,4.8,4.6,7.4,4.6l0.7,0C68.5,555.3,69.4,553.2,67.9,550.6z"/>
	<path class="st18" d="M128.4,544.5l-16.5-12c-2.1-0.8-6.5-0.6-9.4,0.2c-1.3,0.4-2.1,1.6-2,3l0.2,2.9c0.2,4.2,0.6,4.7,3.4,5.8
		l16.4,6.4c2.8,1.1,6.7,0.7,8.7-1l0.6-0.5C131.8,547.8,131.2,545.6,128.4,544.5z"/>
	<path class="st20" d="M102,534.3c0.2,4.2,7.5,5,10,1.7c3.8-40.9,7.4-104.8,7.4-104.8l-19-37.1C100.3,394.2,102.3,496.4,102,534.3z"
		/>
	<path class="st20" d="M53.5,525.5c-1.7,3.5,4.9,7.9,7.9,4.9c15-13.8,26.9-35.4,36.8-60.8c8.9-23-13.3-32.3-17.6-8.3
		C76.5,484,68.5,505.6,53.5,525.5z"/>
	<path class="st24" d="M79.9,408.7c-4.2,16.5,4.4,54.1-4.2,68.4c0,0,14.5,31.3,47.3,4.4l-4.5-68.4L79.9,408.7z"/>
	<g>
		<path class="st21" d="M153,366.7L142.2,388c-2.5,4.9-8.6,7.2-12.8,4.9L104.1,371l10.5-8.7L130,380c1.5,1,3.7,0.4,5-1.3l9.9-13.7
			L153,366.7z"/>
		<g>
			<path class="st25" d="M171.3,345.7c-0.6,3.6,0.3,6.8,2.2,7.1c1.9,0.3,3.9-2.3,4.5-5.9c0.6-3.6-0.3-6.8-2.2-7.1
				C174,339.4,172,342.1,171.3,345.7z"/>
			<path class="st18" d="M156.8,376L156.8,376c-2.7,1.1-5.8-0.2-6.9-2.9l-8.7-21.8c-1.1-2.7,0.2-5.8,2.9-6.9l0,0
				c2.7-1.1,5.8,0.2,6.9,2.9l8.7,21.8C160.8,371.8,159.5,374.9,156.8,376z"/>
			<path class="st20" d="M160.5,370.4L160.5,370.4c-3.2,1.1-6.8-0.6-8-3.8l-2.8-8c-1.1-3.2,0.6-6.8,3.8-8l0,0c3.2-1.1,6.8,0.6,8,3.8
				l2.8,8C165.5,365.7,163.8,369.3,160.5,370.4z"/>
			<path class="st20" d="M147.5,365.7l-0.7,0.3c-1.4,0.5-3-0.3-3.5-1.7l-0.3-0.9c-0.5-1.4,0.3-3,1.7-3.5l0.7-0.3
				c1.4-0.5,3,0.3,3.5,1.7l0.3,0.9C149.7,363.6,148.9,365.2,147.5,365.7z"/>
			<path class="st24" d="M143.7,341c-0.3-0.1-7.8-1.1-8.1-1c-0.9-0.3-2,0-3.1,1.1c-2.1,2-3.2,5.9-2.5,8.7c0.4,1.8,1.5,2.7,2.7,2.6
				c0.3,0.1,7.8,1.1,8.1,1c0.9,0.3,2,0,3.1-1.1c2.1-2,3.2-5.9,2.5-8.7C146,341.9,145,341,143.7,341z"/>
			<path class="st24" d="M153.7,339.7c-0.4-0.1-11.5-1.6-11.9-1.5c-1.4-0.4-3,0-4.6,1.6c-3.1,3-4.7,8.8-3.7,12.9
				c0.7,2.6,2.2,4,4,3.9c0.4,0.1,11.5,1.6,11.9,1.5c1.4,0.4,3,0,4.6-1.6c3.1-3,4.7-8.8,3.7-12.9C157.1,341,155.5,339.6,153.7,339.7z
				"/>
			<path class="st26" d="M153.7,339.7l27.4-7.4l-6.6,41.7l-28.2-16.8C144.6,349.2,147.2,340.1,153.7,339.7z"/>
			<path class="st21" d="M178.4,349.1l-4,22.5c0,0-28.4-15.6-28.5-16.2c-0.4-3.1-0.1-6.3,0.7-9L178.4,349.1z"/>
			<path class="st24" d="M187,338.9c3.6,9,1.7,22.5-4.3,30.1c-6,7.6-13.8,6.5-17.4-2.5c-3.6-9-1.7-22.5,4.3-30.1
				C175.6,328.8,183.4,329.9,187,338.9z"/>
			
				<ellipse transform="matrix(0.1423 -0.9898 0.9898 0.1423 -195.7935 480.6541)" class="st24" cx="179.4" cy="353.3" rx="21.5" ry="12.4"/>
			<path class="st9" d="M188.1,340c3.3,8.3,1.5,20.8-4,27.9c-5.6,7.1-12.8,6-16.1-2.3c-3.3-8.3-1.5-20.8,4-27.9
				C177.6,330.6,184.8,331.7,188.1,340z"/>
			<path class="st26" d="M167,348.8c1.1-5.4,3.7-9.4,5-11c5.6-7.1,12.8-6,16.1,2.3c1,2.4,1.8,5.2,1.6,11.6
				C183.4,343.1,174.4,344.3,167,348.8z"/>
			<path class="st27" d="M169.2,346.8c1.3-1.5,2.5-2.2,3.8-2.2l0,0l0.2,0.1c0.1,0,0.2,0,0.3,0l4.9,0c0.2,0,0.4-0.4,0.6-0.4l-1,0
				l0,0.7c0,0.3,2.9,1.3,3.5,3c1.5,3.6,0.9,9.2-1.7,12.4c-1.9,2.3-3.5,2.2-3.5,2.2s-0.6,0-0.8,0l-8.7-0.9
				C166.9,361.8,166.5,350,169.2,346.8z"/>
			<path class="st28" d="M169.4,342.1c0.1,0,8.3,1.7,8.3,1.7c0.2,0,0.4,0.6,0.5,0.6l-0.3,0l-0.3-0.6c0.4,0.1,2.6,0.9,3.3,2.6
				c1.5,3.6,0.7,9-1.7,12.1c-1.1,1.4-1.2,2.1-3.6,2v0c0,0-9.1-1.4-9.5-1.5C165.8,355.4,165.9,348.9,169.4,342.1z"/>
			<polygon class="st9" points="151.9,340.9 168.6,336.5 165.2,342 150.7,343.7 			"/>
			<polygon class="st29" points="137.4,341.4 147.5,342.9 149.1,340.8 139,339.4 			"/>
		</g>
		<path class="st21" d="M120.2,418.1c-0.1-13.3-1.9-21.2-2-37.6c-2.5-19.4-3.2-24.7-18.6-23.6l-3.9,1.7c-1.9,0.8-3.7,1.9-5.4,3.1
			c-17.9,12.9-18.2,11.5-15.9,22.6c0.7,5.8-2.4,3.6-1,7.2c2.6,7,4.9,11.3,3.4,24.9c-0.3,2.7,4.6,5.8,7.1,6.9
			C93.8,427.5,117.5,426.6,120.2,418.1z"/>
		<path class="st30" d="M94.9,359.5c0,0-2.3,2.9-3.6,3.4c-1.3,0.5-17.7-9.2-14.3-23.2c2.1-8.9,18.9-4.6,18.9-4.6L94.9,359.5z"/>
		<path class="st20" d="M92,371.2l0.7,0c2.4,0.1,4.5-1.9,4.5-4.4l0.3-13.8c0.1-2.4-1.9-4.5-4.4-4.5l-0.7,0c-2.4-0.1-4.5,1.9-4.5,4.4
			l-2.2,13.2C85.6,368.5,89.5,371.2,92,371.2z"/>
		<path class="st23" d="M97.4,360.1c0,0-5.8,1-10.4-4c0,0,4.9,7.9,10.3,7.9L97.4,360.1z"/>
		<path class="st20" d="M83,332c1.8-4.2,5.2-5.5,8.6-3.9c3-1.9,6.9-0.6,10.2,3.8c4.5,6.2,6,16.2,3.3,22.3c-1.9,4.3-4.6,5.6-8.9,5.7
			c-4.6,0.2-9-0.7-12.3-5.3C79.4,348.4,80.3,338.1,83,332z"/>
		<path class="st30" d="M87.4,335.6c0,0,5.2,13.3-4.8,19.2c0,0-14.1-3.8-8.6-19.4c4.8-13.7,19.8-8.2,19.8-8.2L87.4,335.6z"/>
		<path class="st30" d="M83.9,345.2c1.6-4.1,12.7-6.8,21.5-5.8c4-0.8,2.4-4.2-0.8-7.4c-4-4.1-9.5-6.4-15.2-6.8l-3.9-0.3
			c-7,0-12.6,10.8-12.6,15.6l4.5-0.8C77.3,344.3,79.1,345.2,83.9,345.2z"/>
		<path class="st30" d="M92.9,334.5c2.1,1.3-8,4.7-9,6.9c-2.9,6.6,1.3,21.9,8.7,25.7c1.7,0.9,2.7,3,4.3,4.5c4.3,4.2-1.4,11-6.2,7.4
			c-0.1-0.1-0.2-0.1-0.3-0.2c-9.8-7.1-17.2-21.6-16.4-31.5c0.5-5.8,3.1-11.6,5.2-15.4c1.3-2.4,4.5-3.2,6.8-1.7L92.9,334.5z"/>
		<path class="st30" d="M96.5,376c0,0,11.9,7.1,11.7,21.2c0,0-4.5-5.8-8.3-8.3c0,0,9.1,6.4,9.1,18c0,0-4.1-7.4-10.6-12.9
			c-6.5-5.5-8.5-17.9-8.5-17.9L96.5,376z"/>
		<path class="st18" d="M91.9,381.2l6.9-3.7c1.6-0.9,2.2-2.9,1.3-4.5v0c-0.9-1.6-2.9-2.2-4.5-1.3l-6.9,3.7c-1.6,0.9-2.2,2.9-1.3,4.5
			l0,0C88.3,381.5,90.3,382.1,91.9,381.2z"/>
		<path class="st20" d="M82.4,354.7c1.1,1.5,3.2,1.8,4.7,0.7c1.5-1.1,1.8-3.2,0.7-4.7c-1.1-1.5-3.2-1.8-4.7-0.7
			C81.6,351.1,81.3,353.2,82.4,354.7z"/>
		<path class="st21" d="M81.3,392.2c0,0,20.4,9-3.3-26.7c-4.8-7.2-35.7-42.4-35.7-42.4l-4.7,4.9c0,0,19.3,32.8,24.1,41
			c6.9,11.8,16.2,36.9,16.2,36.9C82.6,405.3,81.3,392.2,81.3,392.2z"/>
		<path class="st20" d="M43.8,328.8L43.8,328.8c1.7-2.4,1-5.8-1.4-7.5l-3.2-2.2c-2.4-1.7-5.8-1-7.5,1.4l0,0c-1.7,2.4-1,5.8,1.4,7.5
			l3.2,2.2C38.8,331.8,42.1,331.2,43.8,328.8z"/>
		<g>
			<g>
				<path class="st9" d="M93.7,352.1l9.3-1.5c0,0-1.7,5.7-4.4,5.7C95.9,356.3,93.7,352.1,93.7,352.1z"/>
			</g>
		</g>
	</g>
</g>
<path class="st9" d="M210.8,271.2c0,0,16.8-0.1,20.8-29.7c0,0,2.2,30.3,20.4,37.1c0,0-20.8,0.4-22.3,27.2
	C229.8,305.9,229.7,277.1,210.8,271.2z"/>
<g>
	<g>
		<path class="st20" d="M462.7,522.9c-12.6,5.6-26,16-33.7,27.6c-5.4,8.2-6.7,17.6-6.2,27.1c0.7,13.2,2.8,19.5,3.5,32.7
			c0.5,8.9,9.3,9,8.8,0c-0.7-12.3,4.7-44.4,8.1-50.8c3-5.6,11.8-3.4,16.5-7.4c5.2-4.5,3.6-14.2,9.9-17c3.5-1.5,4.2-6.5,2.5-9.5
			C470.2,521.9,466.1,521.4,462.7,522.9L462.7,522.9z"/>
	</g>
	<g>
		<path class="st20" d="M394.7,596.3c10.2-11,18.1-19.6,29.5-29.6c2.2-1.9,6.3-8.3,6.9-8.3c-1.5,0.1,7.2,2.3,10.5,3
			c11.6,2.3,22.8,0.2,32.7-6.5c7.3-5,0.4-17.1-7-12c-9,6.1-17.9,6.6-28,3.5c-2.8-0.8-5.8-2-8.8-1.9c-5.9,0.1-11.5,3.6-15.9,7.2
			c-12,10.1-15.9,27.7-26.4,39C382.1,597.2,388.6,602.9,394.7,596.3L394.7,596.3z"/>
	</g>
	<path class="st28" d="M450.3,512.3c-17.7,19.3-32.7,29.6-31.7,36.1c0,0,4.5-1.4,13.8,4c9.2,5.4,6.7,8.6,9,12.7
		c0.5,0.9,1.8,3.7,2.9,3.7c11.1,0.3,46-9.9,44.3-30.7c-0.8-10.3-2.4-13-2.4-13S463.3,529.2,450.3,512.3z"/>
	<g>
		<path class="st18" d="M435.8,608.2c-1-1.9-3.5-3.9-4.8-3.5l-3.6,5.7l-0.5,0.2c-2,2.5-12,13.2-14.7,17c-1.4,2,1.8,3.1,1.8,3.1
			c6.8,1.3,13.6-1.8,13.6-1.8c2.9-2,1-4.7,4-9c0.5-0.7,1.7-1.5,1.9-0.8l-0.3,4.6l1.6-0.3c0,0,1-6.6,1.8-11.1
			C436.9,610.6,436.6,609,435.8,608.2z"/>
		<path class="st20" d="M430,604.2l-3,2.5c0,0-7.6,11.8-9,14.2c-1.7,2.7,8.3,7.5,15.1-8.7C438.1,603.7,430,604.2,430,604.2z"/>
	</g>
	<g>
		<path class="st18" d="M399.9,593.7c-0.1-2.1-1.5-5-2.9-5.2l-5.7,3.7l-0.6-0.1c-2.8,1.4-16.5,6.8-20.6,9.1
			c-2.1,1.2,0.3,3.6,0.3,3.6c5.6,4.1,13,4.2,13,4.2c3.5-0.6,2.9-3.8,7.5-6.5c0.8-0.4,2.2-0.6,2,0.1l-2.2,4.1l1.6,0.4
			c0,0,3.7-5.6,6.4-9.2C399.9,596.3,400.2,594.8,399.9,593.7z"/>
		<path class="st20" d="M396.4,587.6l-3.8,1c0,0-11.9,7.5-14.2,9c-2.7,1.8,4.3,10.3,17.4-1.4C403.9,590.6,396.4,587.6,396.4,587.6z"
			/>
	</g>
	<path class="st28" d="M471.8,428.7c0,0,9.5-6.5,14.9,1.8c5.5,8.3,1.9,13.9,8.1,18.4c6.2,4.5,15.1,17.9,7.9,22.1
		c-7.2,4.1-12.2,1.9-13.1-4.4c-0.9-6.4,0-7.4-5-11.4C479.6,451.2,471.8,428.7,471.8,428.7z"/>
	<path class="st18" d="M480.9,433.6c-0.5,3.4-3.3,5.8-6.3,5.3c-3-0.4-5-3.5-4.5-6.9c0.5-3.4,3.3-5.8,6.3-5.3
		C479.3,427.1,481.4,430.2,480.9,433.6z"/>
	<path class="st24" d="M432.7,474.2c8.7-18.3,19.8-20.1,23.2-17.5c3.4,2.6-13.3,19-13.3,19s-5.8,22.7-13.5,18.8
		C420.6,490.2,423.8,492.9,432.7,474.2z"/>
	<path class="st24" d="M444.7,518.1c-1.5-12.9-0.4-21-2.3-36.9c0-19.2,0-24.5,14.9-25.9l4,1.1c1.9,0.5,3.8,1.2,5.5,2.1
		c18.7,9.6,22.6,11.7,21.7,22.9c0,5.8-3.3-0.3-4.1,3.4c-1.6,7.3-1.6,25.4,1.5,38.4c0.6,2.6-0.3,5.4-2.4,7
		C474.2,537.3,448.4,526,444.7,518.1z"/>
	<path class="st28" d="M461,455.9c0,0,2.1,2.6,3.3,3.1c1.2,0.4,16.1-8.4,13.1-21.2c-1.9-8.1-17.3-4.2-17.3-4.2L461,455.9z"/>
	<path class="st20" d="M465.9,466.9l-0.7,0.1c-2.2,0.4-4.3-1.1-4.7-3.3l-2.1-12.4c-0.4-2.2,1.1-4.3,3.3-4.7l0.7-0.1
		c2.2-0.4,4.3,1.1,4.7,3.3l3.8,11.7C471.2,463.7,468.1,466.6,465.9,466.9z"/>
	<path class="st20" d="M466.1,429.7c-2.7-3.2-6-3.5-8.5-1.2c-3.1-0.9-6.2,1.2-8,5.9c-2.4,6.6-1.2,15.7,2.7,20.4
		c2.7,3.3,6.1,3.5,8.7,1.1c3.8,1,8.3-1.3,10.1-6.2C473.5,443.2,470,434.4,466.1,429.7z"/>
	<path class="st28" d="M463.1,434c0,0-1.2,13,9.1,15.6c0,0,11.4-6.9,2.6-19.2c-7.7-10.8-19.5-2.2-19.5-2.2L463.1,434z"/>
	<path class="st28" d="M468.7,441.5c-2.4-3.1-12.9-2.7-20.3,0.4c-3.7,0.3-3.2-3-1.2-6.7c2.5-4.6,6.7-8,11.6-9.8l3.4-1.3
		c6.2-1.8,13.8,6.3,15,10.5l-4.1,0.4C474.2,439.1,472.9,440.3,468.7,441.5z"/>
	<path class="st20" d="M472.8,451.6c-0.6,1.6-2.4,2.4-4,1.8c-1.6-0.6-2.4-2.4-1.8-4c0.6-1.6,2.4-2.4,4-1.8
		C472.5,448.2,473.3,450,472.8,451.6z"/>
	<polygon class="st31" points="476.3,485.5 487.8,510.4 475.5,518.1 	"/>
	<path class="st20" d="M464.4,521.7L464.4,521.7c0.2-2.5-1.8-4.7-4.3-4.9l-3.3-0.2c-2.5-0.2-4.7,1.8-4.9,4.3l0,0
		c-0.2,2.5,1.8,4.7,4.3,4.9l3.3,0.2C462,526.2,464.2,524.2,464.4,521.7z"/>
	<path class="st20" d="M461.4,524.7c0,0,27.1,3.1,30.2-15.7l-6.4-5.9c0,0,3.6,14-25.9,15.3L461.4,524.7z"/>
	<path class="st24" d="M476.8,477.8l3.5,34l6.4,8.3c0,0,9.8-3.1,8.5-17.9c-1.6-18.7-8.7-30.9-8.7-30.9L476.8,477.8z"/>
	<g>
		<g>
			<path class="st9" d="M452.3,449.1l6.1,1.2c0,0-2.3,3.2-4,2.5C452.7,452.2,452.3,449.1,452.3,449.1z"/>
		</g>
	</g>
	<path class="st23" d="M459.5,457.1c0,0,5.3,1.2,8.8-3.9c0,0-3.4,6.7-8.2,7.4L459.5,457.1z"/>
	<path class="st20" d="M414.7,458.2c0,0,2.4,39,15.5,35.3c0,0,4.9,0.6-1.5-14.4c-6.4-15-5.4-22.3-5.4-22.3L414.7,458.2z"/>
	<g>
		<g>
			<path class="st32" d="M447.7,442.9l-17.2,5.8l2.1,6.1l17.2-5.8c1.1-0.4,1.4-2,0.9-3.7C450.1,443.6,448.8,442.6,447.7,442.9z"/>
			<path class="st32" d="M444.1,442.7l-24.4,8.3l2.9,8.6l24.4-8.3c1.5-0.5,2.1-2.9,1.2-5.2C447.5,443.7,445.6,442.1,444.1,442.7z"/>
			<path class="st18" d="M429,445.8C429,445.8,429,445.8,429,445.8l-30,9.3l0,0c0,0-0.1,0-0.1,0c-2.1,0.7-2.8,4.5-1.4,8.3
				c1.3,3.9,4.1,6.5,6.2,5.7c0,0,0.1,0,0.1-0.1l0,0l29.4-11l0,0c2.1-0.7,2.9-4.1,1.7-7.5C433.7,447.3,431.1,445.1,429,445.8z"/>
			<g>
				<path class="st28" d="M409.7,450.7C409.7,450.7,409.6,450.7,409.7,450.7l-14.5,3.6l6.6,17.6l13.2-5.8h0c2.6-0.9,3.6-5.1,2.1-9.3
					C415.6,452.5,412.3,449.8,409.7,450.7z"/>
				
					<ellipse transform="matrix(0.9466 -0.3223 0.3223 0.9466 -128.0784 152.9452)" class="st32" cx="397.9" cy="463.3" rx="6.7" ry="9.4"/>
				<path class="st33" d="M402.7,461.6c1.3,3.8,0.2,7.6-2.5,8.5c-2.7,0.9-5.8-1.4-7.1-5.2c-1.3-3.8-0.2-7.6,2.5-8.5
					C398.2,455.5,401.4,457.9,402.7,461.6z"/>
			</g>
		</g>
		<path class="st20" d="M414,446.1l0.9,0c2.7-0.1,5.1,2,5.2,4.7l0,0.3c0.1,2.7-2,5.1-4.7,5.2l-0.9,0c-2.7,0.1-5.1-2-5.2-4.7l0-0.3
			C409.1,448.6,411.2,446.2,414,446.1z"/>
		<path class="st34" d="M397.4,459.6c-0.4-1.6-2.5-2-3.5-0.6c-0.9,1.2-1.2,3.3,0.8,6.9C398.6,472.6,399.1,465.6,397.4,459.6z"/>
		<path class="st9" d="M398,459.2c0.4,0.7,0.3,1.5-0.3,1.8c-0.6,0.3-1.3,0.1-1.7-0.6c-0.4-0.7-0.3-1.5,0.3-1.8
			C396.9,458.3,397.6,458.6,398,459.2z"/>
	</g>
</g>

<g>
	<path class="st12" d="M123,280.6c10.3,8.2,10.6,25,10.6,25s-16.4,3.6-26.7-4.6c-10.3-8.2-10.6-25-10.6-25S112.7,272.5,123,280.6z"
		/>
	<path class="st12" d="M152.2,286.4c-3.6,12.7-19,19.4-19,19.4s-9.6-13.8-5.9-26.5c3.6-12.7,19-19.4,19-19.4
		S155.8,273.8,152.2,286.4z"/>
	<path class="st12" d="M113.1,229.8c7.8,10.6,3.6,26.9,3.6,26.9s-16.8-1-24.5-11.6c-7.8-10.6-3.6-26.9-3.6-26.9
		S105.3,219.1,113.1,229.8z"/>
	<path class="st12" d="M139.8,243.2c-6.9,11.2-23.5,13.6-23.5,13.6s-5.5-15.9,1.3-27.1s23.5-13.6,23.5-13.6S146.7,232,139.8,243.2z"
		/>
	<path class="st12" d="M116.4,179.8c4.5,12.4-4,26.8-4,26.8S96.5,201,92,188.7c-4.5-12.4,4-26.8,4-26.8S111.9,167.4,116.4,179.8z"/>
	<path class="st12" d="M139.6,153.5c-4.8,12.3-20.8,17.5-20.8,17.5s-8.2-14.7-3.4-26.9c4.8-12.3,20.8-17.5,20.8-17.5
		S144.4,141.3,139.6,153.5z"/>
	<path class="st12" d="M138.6,200c-9.7,8.9-26.3,6.5-26.3,6.5s-0.9-16.8,8.8-25.7c9.7-8.9,26.3-6.5,26.3-6.5S148.3,191.1,138.6,200z
		"/>
</g>
<g>
	<path class="st12" d="M506.4,391.3c-11.2,6.9-13.5,23.6-13.5,23.6s15.9,5.4,27.1-1.5c11.2-6.9,13.5-23.6,13.5-23.6
		S517.6,384.4,506.4,391.3z"/>
	<path class="st12" d="M476.3,393.4c2.1,13,16.6,21.4,16.6,21.4s11.1-12.6,9-25.6c-2.1-13-16.6-21.4-16.6-21.4
		S474.1,380.4,476.3,393.4z"/>
	<path class="st12" d="M522.2,342c-8.9,9.7-6.7,26.3-6.7,26.3s16.8,1,25.7-8.7c8.9-9.7,6.7-26.3,6.7-26.3S531.1,332.3,522.2,342z"/>
	<path class="st12" d="M494.2,351.8c5.5,12,21.8,16.2,21.8,16.2s7.3-15.1,1.8-27.1s-21.8-16.2-21.8-16.2S488.7,339.9,494.2,351.8z"
		/>
	<path class="st12" d="M524.7,291.9c-5.9,11.8,0.9,27.1,0.9,27.1s16.4-3.7,22.3-15.4c5.9-11.8-0.9-27.1-0.9-27.1
		S530.6,280.2,524.7,291.9z"/>
	<path class="st12" d="M506.5,263.1c3.3,12.7,18.6,19.8,18.6,19.8s9.9-13.6,6.5-26.3c-3.3-12.7-18.6-19.8-18.6-19.8
		S503.1,250.3,506.5,263.1z"/>
	<path class="st12" d="M500.2,309.4c8.6,10,25.4,9.6,25.4,9.6s2.8-16.6-5.8-26.5s-25.4-9.6-25.4-9.6S491.6,299.5,500.2,309.4z"/>
</g>
<g>
	<path class="st35" d="M368.1,655.1L368.1,655.1c-3.7-2.2-1.1-5.8,4.1-5.8l0,0c6,0,10.8-2.8,10.8-6.2l0-1.8c0-3.4-4.9-6.2-10.8-6.2
		l0,0c-5.3,0-7.9-3.7-4.2-5.8v0c4.2-2.4,4.2-6.4,0-8.8l-2.2-1.3c-4.2-2.4-11.1-2.5-15.3,0l0,0c-3.7,2.1-10.1,0.6-10.1-2.4v0
		c0-3.4-4.9-6.2-10.8-6.2l-3.1,0c-6,0-10.8,2.8-10.8,6.2l0,0c0,3-6.3,4.5-10.1,2.4h0c-4.2-2.4-11.1-2.5-15.3,0l-2.2,1.2
		c-4.2,2.4-4.2,6.4,0,8.8c3.7,2.2,1.1,5.8-4.1,5.8v0c-6,0-10.8,2.8-10.8,6.2l0,1.8c0,3.4,4.9,6.2,10.8,6.2h0c5.3,0,7.9,3.7,4.2,5.8
		l0,0c-4.2,2.4-4.2,6.4,0,8.8l2.2,1.3c4.2,2.4,11.1,2.5,15.3,0c3.7-2.1,10.1-0.6,10.1,2.4c0,3.4,4.9,6.2,10.8,6.2l3.1,0
		c6,0,10.8-2.8,10.8-6.2l0,0c0-3,6.3-4.5,10.1-2.4l0,0c4.2,2.4,11.1,2.5,15.3,0l2.2-1.2C372.3,661.4,372.3,657.5,368.1,655.1z
		 M309.3,652.9c-10.5-6.1-10.5-15.8-0.1-21.9c10.4-6,27.4-6,37.9,0.1c10.5,6.1,10.5,15.8,0.1,21.9C336.7,659,319.8,659,309.3,652.9z
		"/>
	<path class="st18" d="M372.3,639.9l0-14.7l-8.5-1.3l-3.7-1.8c-0.4-1.1-1.4-2.2-2.9-3.1l-2.2-1.3c-0.5-0.3-1-0.5-1.5-0.7l6.5-0.3
		l0.3-9.8l-28.3-3.3l-2.7-6.6l-24.3,0.7l3.4,6.4c-6.3,0.5-14.4,1.1-14.4,1.1l-1.3,1.7c-2.6-0.2-18.2-1.3-18.2-1.3v12.8l5.7-1
		c-0.2,0.1-0.4,0.2-0.5,0.3l-2.2,1.2c-1.6,0.9-2.6,2.1-3,3.2l-11.9,0.8l0,15.9l0.1,0c-0.1,0.3-0.1,0.6-0.1,0.8l0,1.8
		c0,3.4,4.9,6.2,10.8,6.2h0c0.4,0,0.7,0,1,0.1l0.1,10l0,0c-0.1,1.6,1,3.3,3.2,4.5l2.2,1.3c4.2,2.4,11.1,2.5,15.3,0
		c3.7-2.1,10.1-0.6,10.1,2.4c0,3.4,4.9,6.2,10.8,6.2l3.1,0c6,0,10.8-2.8,10.8-6.2l0,0c0-3,6.3-4.5,10.1-2.4l0,0
		c4.2,2.4,11.1,2.5,15.3,0l2.2-1.2c2.6-1.5,3.6-3.6,2.9-5.6h0v-9c0.4,0,0.8-0.1,1.2-0.1c5.8,0,10.4-2.6,10.7-5.9l0,0l0-0.2
		c0-0.1,0-0.1,0-0.2L372.3,639.9C372.3,639.9,372.3,639.9,372.3,639.9z M318.3,643.5c-10.5,0-19-4.9-19-11c0-6.1,8.5-11,19-11
		c10.5,0,19,4.9,19,11C337.2,638.6,328.7,643.5,318.3,643.5z"/>
	<path class="st36" d="M357.4,636.9L357.4,636.9c-3.7-2.2-1.1-5.8,4.1-5.8l0,0c6,0,10.8-2.8,10.8-6.2l0-1.8c0-3.4-4.9-6.2-10.8-6.2
		v0c-5.3,0-7.9-3.7-4.2-5.8v0c4.2-2.4,4.2-6.4,0-8.8L355,601c-4.2-2.4-11.1-2.5-15.3,0l0,0c-3.7,2.1-10.1,0.6-10.1-2.4v0
		c0-3.4-4.9-6.2-10.8-6.2l-3.1,0c-6,0-10.8,2.8-10.8,6.2l0,0c0,3-6.3,4.5-10.1,2.4l0,0c-4.2-2.4-11.1-2.5-15.3,0l-2.2,1.2
		c-4.2,2.4-4.2,6.4,0,8.8c3.7,2.2,1.1,5.8-4.1,5.8l0,0c-6,0-10.8,2.8-10.8,6.2l0,1.8c0,3.4,4.9,6.2,10.8,6.2h0
		c5.3,0,7.9,3.7,4.2,5.8l0,0c-4.2,2.4-4.2,6.4,0,8.8l2.2,1.3c4.2,2.4,11.1,2.5,15.3,0c3.7-2.1,10.1-0.6,10.1,2.4
		c0,3.4,4.9,6.2,10.8,6.2l3.1,0c6,0,10.8-2.8,10.8-6.2l0,0c0-3,6.3-4.5,10.1-2.4l0,0c4.2,2.4,11.1,2.5,15.3,0l2.2-1.2
		C361.7,643.3,361.6,639.3,357.4,636.9z M298.6,634.8c-10.5-6.1-10.5-15.8-0.1-21.9c10.4-6,27.4-6,37.9,0.1
		c10.5,6.1,10.5,15.8,0.1,21.9C326.1,640.9,309.1,640.8,298.6,634.8z"/>
</g>
<g>
	<path class="st35" d="M278.9,692.6L278.9,692.6c-2.7-1.6-0.8-4.2,3-4.2l0,0c4.3,0,7.8-2,7.8-4.5l0-1.3c0-2.5-3.5-4.5-7.9-4.6l0,0
		c-3.8,0-5.8-2.7-3.1-4.2l0,0c3.1-1.8,3-4.6,0-6.4l-1.6-0.9c-3.1-1.8-8.1-1.8-11.1,0h0c-2.7,1.6-7.3,0.4-7.4-1.8v0
		c0-2.5-3.5-4.5-7.9-4.6l-2.2,0c-4.3,0-7.8,2-7.8,4.5l0,0c0,2.2-4.6,3.3-7.3,1.7l0,0c-3.1-1.8-8.1-1.8-11.1,0l-1.6,0.9
		c-3.1,1.8-3,4.6,0,6.4c2.7,1.6,0.8,4.2-3,4.2l0,0c-4.3,0-7.8,2-7.8,4.5l0,1.3c0,2.5,3.5,4.5,7.9,4.6h0c3.8,0,5.8,2.7,3.1,4.2v0
		c-3.1,1.8-3,4.6,0,6.4l1.6,0.9c3.1,1.8,8.1,1.8,11.1,0c2.7-1.6,7.3-0.4,7.4,1.8c0,2.5,3.5,4.5,7.9,4.6l2.2,0c4.3,0,7.8-2,7.8-4.5v0
		c0-2.2,4.6-3.3,7.3-1.7l0,0c3.1,1.8,8.1,1.8,11.1,0l1.6-0.9C282,697.3,282,694.4,278.9,692.6z M236.1,691.1
		c-7.6-4.4-7.7-11.5-0.1-15.9c7.6-4.4,19.9-4.4,27.6,0c7.6,4.4,7.7,11.5,0.1,15.9S243.7,695.5,236.1,691.1z"/>
	<path class="st18" d="M279.3,680.8l0-9.4l-5.5-0.9l-2.4-1.1c-0.3-0.7-0.9-1.4-1.9-2l-1.4-0.8c-0.3-0.2-0.6-0.3-1-0.5l4.2-0.2
		l0.2-6.3l-18.2-2.2l-1.8-4.2l-15.6,0.5l2.2,4.1c-4.1,0.3-9.3,0.7-9.3,0.7l-0.9,1.1c-1.7-0.1-11.7-0.8-11.7-0.8v8.2l3.7-0.6
		c-0.1,0.1-0.2,0.1-0.3,0.2l-1.4,0.8c-1,0.6-1.7,1.3-1.9,2.1l-7.7,0.5l0,10.3l0.1,0c0,0.2-0.1,0.4-0.1,0.5l0,1.1c0,2.2,3.1,4,7,4h0
		c0.2,0,0.4,0,0.7,0l0,6.5h0c0,1.1,0.6,2.1,2,2.9l1.4,0.8c2.7,1.6,7.1,1.6,9.8,0c2.4-1.4,6.5-0.4,6.5,1.6c0,2.2,3.1,4,7,4l2,0
		c3.8,0,6.9-1.8,6.9-4l0,0c0-2,4.1-2.9,6.5-1.5l0,0c2.7,1.6,7.1,1.6,9.8,0l1.4-0.8c1.7-1,2.3-2.3,1.9-3.6h0V686c0.2,0,0.5,0,0.7,0
		c3.7,0,6.7-1.7,6.9-3.8l0,0l0-0.1c0,0,0-0.1,0-0.1L279.3,680.8C279.3,680.8,279.3,680.8,279.3,680.8z M244.4,683.1
		c-6.8,0-12.2-3.2-12.2-7.1c0-3.9,5.5-7.1,12.2-7.1c6.8,0,12.2,3.2,12.2,7.1C256.7,680,251.2,683.1,244.4,683.1z"/>
	<path class="st36" d="M269.7,678.9L269.7,678.9c-2.4-1.4-0.7-3.8,2.7-3.7l0,0c3.8,0,6.9-1.8,6.9-4l0-1.1c0-2.2-3.1-4-7-4l0,0
		c-3.4,0-5.1-2.4-2.7-3.8v0c2.7-1.6,2.7-4.1,0-5.7l-1.4-0.8c-2.7-1.6-7.1-1.6-9.8,0l0,0c-2.4,1.4-6.5,0.4-6.5-1.6v0c0-2.2-3.1-4-7-4
		l-2,0c-3.8,0-6.9,1.8-6.9,4h0c0,2-4.1,2.9-6.5,1.5h0c-2.7-1.6-7.1-1.6-9.8,0l-1.4,0.8c-2.7,1.6-2.7,4.1,0,5.7
		c2.4,1.4,0.7,3.8-2.7,3.7l0,0c-3.8,0-6.9,1.8-6.9,4l0,1.1c0,2.2,3.1,4,7,4h0c3.4,0,5.1,2.4,2.7,3.8h0c-2.7,1.6-2.7,4.1,0,5.7
		l1.4,0.8c2.7,1.6,7.1,1.6,9.8,0c2.4-1.4,6.5-0.4,6.5,1.6c0,2.2,3.1,4,7,4l2,0c3.8,0,6.9-1.8,6.9-4l0,0c0-2,4.1-2.9,6.5-1.5l0,0
		c2.7,1.6,7.1,1.6,9.8,0l1.4-0.8C272.4,683,272.4,680.4,269.7,678.9z M231.8,677.5c-6.8-3.9-6.8-10.2-0.1-14.1
		c6.7-3.9,17.6-3.9,24.4,0c6.8,3.9,6.8,10.2,0.1,14.1C249.5,681.4,238.6,681.4,231.8,677.5z"/>
</g>
</svg>
